<svg xmlns="http://www.w3.org/2000/svg" viewBox="0 0 512 512">
  <defs>
    <radialGradient id="bg" cx="46%" cy="30%" r="78%">
      <stop offset="0" stop-color="#4a3514"/>
      <stop offset="0.34" stop-color="#191611"/>
      <stop offset="0.72" stop-color="#0b0b0d"/>
      <stop offset="1" stop-color="#050506"/>
    </radialGradient>
    <radialGradient id="warm" cx="32%" cy="12%" r="70%">
      <stop offset="0" stop-color="#f0dca0" stop-opacity="0.44"/>
      <stop offset="0.24" stop-color="#d7a824" stop-opacity="0.18"/>
      <stop offset="1" stop-color="#000000" stop-opacity="0"/>
    </radialGradient>
    <linearGradient id="gold" x1="112" y1="106" x2="395" y2="402" gradientUnits="userSpaceOnUse">
      <stop offset="0" stop-color="#e8c85b"/>
      <stop offset="0.5" stop-color="#b88a16"/>
      <stop offset="1" stop-color="#7f5d0d"/>
    </linearGradient>
    <filter id="softShadow" x="-20%" y="-20%" width="140%" height="140%">
      <feDropShadow dx="0" dy="3" stdDeviation="3" flood-color="#000000" flood-opacity="0.55"/>
    </filter>
  </defs>
  <rect width="512" height="512" fill="url(#bg)"/>
  <rect width="512" height="512" fill="url(#warm)"/>
  <g opacity="0.34" fill="#d5a522">
    <circle cx="88" cy="76" r="5"/>
    <circle cx="126" cy="48" r="3"/>
    <circle cx="394" cy="76" r="4"/>
    <circle cx="428" cy="116" r="3"/>
    <circle cx="62" cy="316" r="3"/>
    <circle cx="444" cy="342" r="4"/>
  </g>
  <g fill="none" stroke="url(#gold)" stroke-linecap="round" filter="url(#softShadow)">
    <circle cx="256" cy="256" r="204" stroke-width="7"/>
    <circle cx="256" cy="256" r="184" stroke-width="3.5" stroke-dasharray="13 10"/>
    <circle cx="256" cy="256" r="158" stroke-width="2.5" stroke-opacity="0.7"/>
  </g>
  <g filter="url(#softShadow)">
    <path d="M139 263L162 174L221 241L256 151L303 241L360 174L383 263" fill="none" stroke="url(#gold)" stroke-width="12" stroke-linecap="round" stroke-linejoin="round"/>
    <path d="M151 284H371" fill="none" stroke="url(#gold)" stroke-width="12" stroke-linecap="round"/>
    <path d="M174 308H348" fill="none" stroke="#987115" stroke-width="5" stroke-linecap="round"/>
    <circle cx="162" cy="174" r="14" fill="#b98b17" stroke="#d8ac28" stroke-width="5"/>
    <circle cx="256" cy="151" r="13" fill="#b98b17" stroke="#d8ac28" stroke-width="5"/>
    <circle cx="360" cy="174" r="14" fill="#b98b17" stroke="#d8ac28" stroke-width="5"/>
    <circle cx="139" cy="263" r="6" fill="#b98b17"/>
    <circle cx="383" cy="263" r="6" fill="#b98b17"/>
  </g>
  <text x="256" y="348" text-anchor="middle" fill="#b98b17" font-family="Georgia, 'Times New Roman', serif" font-size="48" font-weight="500" letter-spacing="4">C.R.C</text>
</svg>
